# xmcd CD database file
#
# Track frame offsets:
#	150
#	16354
#	33608
#	46990
#	72526
#	87939
#	109955
#	124536
#	150679
#	164589
#	188963
#
# Disc length: 2732 seconds
#
# Revision: 0
# Processed by: cddbd v1.5.2PL0 Copyright (c) Steve Scherf et al.
# Submitted via: CDex 1.51
#
DISCID=960aaa0b
DTITLE=Krausberry - Nálada
DYEAR=2007
DGENRE=Blues
TTITLE0=nálada
TTITLE1=na peknu notecku
TTITLE2=mam rada
TTITLE3=nas kluk
TTITLE4=nerikej mi baby
TTITLE5=mario
TTITLE6=posledni dopis
TTITLE7=to
TTITLE8=hubert
TTITLE9=kovboj z drahova
TTITLE10=nastydla
EXTD=YEAR: 2007
EXTT0=
EXTT1=
EXTT2=
EXTT3=
EXTT4=
EXTT5=
EXTT6=
EXTT7=
EXTT8=
EXTT9=
EXTT10=
PLAYORDER=
